<svg width="236" height="2" viewBox="0 0 236 2" fill="none" xmlns="http://www.w3.org/2000/svg">
<path d="M2.24475 1.08722C3.56715 1.06807 5.30075 1.07397 6.61831 1.08699C7.03123 1.09101 6.82228 1.11848 7.10732 1.12245C7.66482 1.13017 8.1841 1.11477 8.73504 1.12449C8.91762 1.12785 8.69056 1.17088 8.88201 1.17343C9.93112 1.18713 10.9235 1.17184 11.9862 1.17585C17.2208 1.19564 22.3661 1.18758 27.6646 1.18218C29.4116 1.18036 31.5356 1.20863 33.34 1.18362C33.5506 1.18066 33.4248 1.14439 33.4649 1.14117C34.0933 1.09176 33.8847 1.16712 34.2951 1.17511C35.9243 1.20659 37.7358 1.2016 39.3034 1.18012C39.9703 1.17087 39.3013 1.10077 39.973 1.13875C40.0197 1.14131 39.8506 1.18122 40.0336 1.18455C40.4484 1.19202 41.2353 1.18138 41.5568 1.18299C42.1764 1.1863 42.2789 1.18543 42.8649 1.18316C43.666 1.1804 44.6189 1.19544 45.4784 1.1826C45.6619 1.17974 45.4188 1.14075 45.7114 1.13257C46.0042 1.1244 46.779 1.12421 47.0402 1.13246C47.3015 1.14071 47.1904 1.17275 47.2367 1.17977C47.6173 1.239 48.5131 1.15037 48.6284 1.14775C50.7306 1.10242 52.5337 1.1422 54.5071 1.13292C56.0053 1.12578 57.6071 1.10248 59.0327 1.09806C60.731 1.09294 62.1705 1.10802 63.8203 1.09664C63.9945 1.09549 63.7902 1.04927 64.0029 1.04776C66.2623 1.03181 68.506 1.02657 70.7559 1.04799C70.9815 1.05018 70.6909 1.09294 70.9164 1.0976C72.2966 1.12525 74.4806 1.19689 75.2994 1.0128C76.2343 1.01551 77.3692 1.01753 78.2057 1.05C78.745 1.0709 78.2215 1.11843 78.8838 1.09612C79.0332 1.09114 78.8387 1.05253 79.0628 1.04805C80.006 1.02922 81.0366 1.03729 81.9696 1.01256C82.1594 1.00743 82.1074 0.972273 82.1611 0.96565C82.6129 0.911931 83.3657 0.993789 83.5297 0.999231C84.7789 1.03969 85.691 1.01727 86.8545 1.01301C87.1245 1.01205 86.8052 0.965972 87.065 0.963333C88.4125 0.950279 89.8084 0.947904 91.1279 0.962894C91.4214 0.966343 91.1517 1.0081 91.292 1.01182C91.9105 1.02773 92.0472 0.950592 92.6404 0.964376C92.7655 0.967184 92.6952 1.00218 92.718 1.00589C93.0752 1.06401 93.385 0.977875 93.4768 0.97558C94.6381 0.944651 95.3809 1.02964 96.5028 1.01192C96.637 1.00972 96.3342 0.967243 96.7115 0.963717C99.2251 0.939968 101.884 0.939713 104.372 0.963287C104.759 0.966893 104.483 1.00113 104.507 1.00508C104.904 1.06673 105.161 0.980478 105.287 0.976691C106.282 0.949025 107.212 1.01605 107.887 0.911611C112.102 0.927258 116.297 0.850944 120.477 0.922357C120.53 0.923163 120.435 0.965495 120.541 0.966922C121.818 0.984534 121.572 0.920561 122.417 0.837022C122.629 0.816041 123.277 0.909183 123.334 0.915964C123.543 0.940967 123.327 1.00429 123.397 1.009C123.975 1.04581 123.88 0.840139 124.66 0.836462C124.684 0.836692 124.582 0.875104 124.648 0.878573C124.851 0.889474 125.053 0.873465 125.252 0.885603C125.707 0.913711 125.87 1.01311 126.566 0.951603C126.654 0.943631 126.519 0.827339 127.215 0.829638C127.493 0.830654 128.722 0.82296 129.066 0.828942C129.41 0.834917 129.174 0.873686 129.199 0.875204C130.126 0.920732 129.774 0.943007 130.239 1.01461C130.704 1.08594 130.574 0.911286 130.763 0.890848C130.953 0.870465 131.633 0.908423 131.8 0.921939C131.967 0.935462 131.759 0.960366 131.907 0.967768C132.891 1.01607 132.339 0.878778 132.663 0.849462C133.427 0.78006 134.023 0.907272 134.723 0.916768C134.912 0.91933 134.758 0.890445 134.926 0.886896C135.594 0.873232 135.996 0.911926 136.755 0.871224C136.88 0.864589 137.494 0.783605 137.892 0.839109C137.948 0.847118 137.788 0.880247 138.073 0.886184C138.498 0.895103 139.264 0.898635 139.721 0.885693C140.058 0.876121 139.671 0.824544 140.096 0.839156C140.285 0.845685 139.935 0.878525 140.29 0.888186C140.643 0.897852 141.545 0.892305 141.888 0.889638C142.231 0.88695 142.043 0.847336 142.071 0.844481C142.238 0.828083 142.896 0.805518 142.954 0.805298C145.884 0.786788 148.587 0.842512 151.441 0.806717C151.664 0.803967 151.515 0.761968 151.549 0.761108C152.316 0.739673 151.712 0.855972 152.248 0.891482C152.17 0.805213 152.486 0.819434 153.026 0.807434C153.286 0.801581 153.144 0.768694 153.168 0.76515C153.554 0.712415 153.823 0.776977 153.892 0.790119C154.148 0.838456 154.426 0.778657 154.6 0.810952C154.774 0.842999 154.374 0.893554 154.892 0.890533C155.037 0.85885 154.652 0.779593 155.045 0.764639C156.528 0.708091 159.298 0.758853 160.491 0.759935C161.681 0.761022 162.066 0.753521 162.76 0.761516C164.013 0.775979 163.553 0.71798 164.331 0.686857C165.111 0.655728 164.733 0.805419 164.845 0.836701C164.955 0.867979 165.075 0.8347 165.212 0.851541C165.349 0.86838 165.053 0.891371 165.375 0.896445C165.696 0.901511 166.574 0.840893 166.688 0.807113C166.928 0.73555 166.532 0.663445 167.382 0.685489C167.431 0.686804 167.273 0.726438 167.46 0.729502C168.947 0.752564 170.491 0.747269 171.977 0.76688C172.181 0.769637 171.998 0.813756 172.117 0.81585C173.355 0.837799 172.912 0.766882 173.59 0.682687C173.439 0.791258 173.814 0.855515 174.754 0.851803C175.318 0.849609 175.221 0.802948 175.586 0.768054C175.695 0.757537 176.095 0.788035 176.167 0.765544C176.406 0.692016 176.029 0.612685 176.998 0.640483C177.04 0.641821 176.905 0.682091 177.052 0.683812C178.001 0.695133 178.114 0.618853 179.14 0.604929C179.944 0.594008 181.375 0.63358 182.291 0.636854C182.272 0.758217 183.137 0.726443 183.487 0.641203C184.081 0.641875 184.723 0.634176 185.298 0.643075C185.495 0.6461 185.365 0.681813 185.39 0.685492C185.773 0.743236 186.031 0.660691 186.159 0.656908C187.549 0.61947 188.682 0.675883 190.009 0.609485C190.056 0.607097 190.132 0.522503 190.486 0.582369C190.509 0.586503 190.071 0.62686 190.696 0.626934C191.32 0.627015 192.497 0.666726 193.363 0.623679C193.573 0.61331 194.103 0.542469 194.529 0.593929C194.586 0.600922 194.524 0.625369 194.606 0.638435C194.87 0.680049 195.015 0.594233 195.326 0.665129C195.637 0.736022 196.285 0.787198 197.158 0.733246C197.186 0.731666 197.393 0.663222 197.667 0.663017C198.106 0.662747 198.729 0.673922 199.187 0.671362C199.407 0.670112 199.266 0.628856 199.304 0.627913C200.779 0.597603 201.828 0.630102 203.408 0.639002C203.698 0.640716 204.53 0.579718 205.091 0.622301C205.707 0.668907 205.075 0.877568 206.49 0.822002C207.061 0.799755 207.782 0.535402 208.808 0.665882C210.798 0.623163 212.638 0.683856 214.632 0.626774C214.722 0.624239 215.005 0.55008 215.216 0.550095C215.529 0.550259 215.701 0.58351 215.925 0.584718C216.862 0.590636 217.719 0.557538 218.622 0.557888C218.965 0.557946 218.845 0.593705 219.254 0.59378C219.663 0.593822 219.935 0.546203 220.489 0.566028C220.908 0.581157 221.326 0.673973 221.881 0.682446C221.902 0.588886 222.284 0.589045 222.961 0.561236C223.092 0.555845 222.952 0.523962 223.013 0.519735C223.264 0.501807 223.496 0.527693 223.734 0.50834C223.792 0.503688 223.795 0.471757 223.842 0.466153C224.245 0.417283 224.909 0.486008 225.023 0.497981C225.46 0.543434 225.664 0.500976 225.999 0.518121C226.333 0.535266 225.833 0.560949 226.224 0.570484C227.034 0.590198 228.074 0.580226 228.897 0.577885C229.225 0.576754 229.001 0.535184 229.048 0.534033C229.726 0.520085 230.413 0.562229 230.789 0.475619C231.26 0.692877 231.198 0.452441 232.168 0.491878C232.245 0.495077 232.342 0.598397 232.049 0.614989C231.756 0.631567 231.311 0.601189 230.904 0.626821C230.807 0.63284 230.256 0.732635 230.181 0.738874C229.591 0.787641 229.506 0.632958 229.475 0.624586C229.121 0.53431 228.446 0.64219 228.269 0.650251C227.456 0.687181 226.766 0.66857 226.086 0.695392C225.641 0.712751 225.598 0.814529 225.249 0.813036C224.089 0.808132 223.683 0.668308 222.59 0.796234C222.355 0.823524 222.589 0.933465 221.748 0.850057C221.695 0.844798 221.071 0.767825 220.711 0.820008C220.666 0.826587 220.667 0.858935 220.608 0.86193C220.207 0.881363 219.941 0.856823 219.505 0.871186C219.069 0.885549 218.545 0.906379 218.047 0.897709C217.747 0.892535 217.362 0.834034 217.219 0.81994C216.813 0.779301 216.379 0.851021 216.127 0.8007C215.874 0.750129 216.369 0.669258 215.704 0.6389C215.68 0.723074 215.624 0.809616 215.585 0.894337C214.13 0.898115 212.698 0.877563 211.238 0.888036C211.057 0.889419 211.242 0.933753 211.048 0.9364C210.229 0.94737 209.514 0.918465 208.665 0.935226C208.008 0.948372 207.287 0.999557 206.6 1.01479C206.18 0.920547 205.16 0.957922 204.419 0.952562C204.16 0.950726 204.177 0.924955 203.992 0.917429C203.296 0.889655 203.622 0.973147 203.432 0.987407C202.613 1.04829 202.542 0.856217 201.577 0.865441C201.525 0.865864 200.901 0.971315 200.815 0.9781C200.267 1.02228 200.724 0.942824 200.381 0.936832C199.756 0.925879 199.321 0.903399 198.588 0.936833C198.374 0.946721 197.861 1.01302 197.446 0.965499C197.391 0.959277 197.421 0.925239 197.377 0.923458C196.581 0.894052 196.56 1.00066 196.105 1.03884C195.651 1.07701 194.947 1.00674 194.804 0.986211C194.43 0.933122 195.091 0.961455 195.111 0.955982C195.349 0.890857 194.836 0.904252 194.445 0.900656C194.388 0.796481 193.84 0.805285 194.039 0.897348C194.061 0.907399 194.366 0.896249 194.445 0.900656C194.101 1.00472 193.499 1.02063 192.834 0.927948C192.523 0.884511 192.817 0.830822 191.871 0.854341C191.442 0.864968 191.609 0.936112 191.23 0.95747C190.365 1.00621 189.241 0.944329 188.349 0.959028C188.026 0.964363 188.341 1.00227 188.12 1.00727C187.533 1.02067 187.015 0.993531 186.425 1.01139C186.372 1.01306 186.503 1.05366 186.319 1.05503C184.93 1.06625 183.719 1.04546 182.268 1.05145C181.567 1.05436 180.314 1.08289 179.587 1.08168C178.328 1.07984 176.78 1.02709 175.704 1.04662C175.003 1.05919 175.157 1.09969 174.857 1.12916C174.277 1.18628 173.25 1.09353 173.112 1.07907C173.107 1.07859 173.711 1.06608 173.389 1.04642C173.201 1.0032 173.118 1.07885 173.112 1.07907C173.021 1.06974 171.815 1.06597 171.576 1.07495C171.446 1.07986 171.519 1.11857 171.451 1.12039C169.839 1.1628 168.224 1.1802 166.589 1.16951C166.56 1.16886 166.603 1.12498 166.535 1.12398C165.588 1.10895 164.983 1.16518 164.202 1.20052C163.422 1.23584 162.802 1.22809 162.34 1.15525C161.751 1.16741 160.906 1.13818 160.42 1.12031C159.933 1.10245 159.866 1.18779 159.823 1.18967C158.489 1.24964 157.717 1.20455 156.333 1.20338C155.675 1.20268 154.369 1.22106 153.656 1.23366C153.093 1.24375 152.754 1.2254 152.235 1.24054C152.165 1.24257 152.236 1.2801 152.214 1.28165C151.635 1.32963 151.913 1.23579 151.794 1.21982C151.36 1.16172 151.092 1.13095 150.35 1.16266C150.179 1.16993 149.681 1.30549 149.37 1.31472C148.964 1.32649 149.117 1.27801 148.692 1.29155C148.656 1.29266 148.664 1.3221 148.402 1.32201C147.186 1.322 145.859 1.31099 144.595 1.3198C144.423 1.32089 144.644 1.3666 144.395 1.36894C143.224 1.3799 141.941 1.38411 140.801 1.36751C140.52 1.36328 140.696 1.32974 140.635 1.32031C140.261 1.26325 139.731 1.35113 139.643 1.35316C137.555 1.40388 135.957 1.33397 133.829 1.38063C133.713 1.38332 132.822 1.47903 132.424 1.40233C132.397 1.39723 132.003 1.3187 131.655 1.37525C131.633 1.37879 131.879 1.41902 131.451 1.41678C131.023 1.41456 130.334 1.44537 129.746 1.40264C129.559 1.38919 129.119 1.31107 128.563 1.37754C128.527 1.38217 127.67 1.53061 127.364 1.43235C127.314 1.41617 127.365 1.31045 126.703 1.3676C126.576 1.37867 126.806 1.40113 126.472 1.41737C125.961 1.44238 125.283 1.41727 124.655 1.46717C124.545 1.47599 124.079 1.54975 123.704 1.49714C123.646 1.4889 123.757 1.45317 123.559 1.45014C122.619 1.43559 121.635 1.46371 120.68 1.44376C120.342 1.43676 120.514 1.37903 120.162 1.36541C119.809 1.35179 119.099 1.34041 118.731 1.36813C118.362 1.39586 118.765 1.48473 118.213 1.49455C115.81 1.53721 113.43 1.495 111.031 1.49832C110.675 1.4988 110.97 1.5299 110.446 1.53295C108.513 1.54431 105.175 1.59021 103.498 1.52898C102.153 1.47995 103.845 1.43005 102.817 1.41232C102.322 1.40389 101.786 1.51186 101.666 1.51573C100.498 1.55488 99.6854 1.51191 98.6335 1.53112C98.4163 1.5351 98.6295 1.57687 98.4446 1.57978C97.8132 1.59012 97.1494 1.57411 96.546 1.58039C96.2753 1.58331 96.3253 1.61574 96.0762 1.61437C95.4801 1.61147 94.953 1.60019 94.3717 1.57227C94.3188 1.56973 94.6757 1.52745 94.2347 1.52798C93.521 1.52896 92.6349 1.50287 91.8139 1.53785C91.5703 1.54836 91.5611 1.62303 91.0371 1.57392C90.9272 1.56366 91.067 1.47339 90.4572 1.55365C90.3547 1.56699 89.3304 1.67618 88.8271 1.61119C88.6943 1.59408 88.3554 1.52231 88.0624 1.5352C88.0227 1.53722 88.1821 1.57657 87.9393 1.5816C87.0837 1.59865 86.1869 1.59852 85.3079 1.61515C85.0732 1.61967 85.423 1.65953 85.0732 1.66494C84.1111 1.67988 82.9099 1.67488 81.969 1.66625C81.6222 1.66299 81.8617 1.62752 81.8365 1.6239C81.4303 1.56495 81.1908 1.64816 81.0561 1.65357C80.2184 1.68611 79.5803 1.6505 78.8081 1.66428C78.595 1.66798 78.7463 1.70643 78.7039 1.71012C78.2641 1.74626 78.5915 1.67444 78.313 1.66798C77.5327 1.64965 76.6631 1.65682 75.8741 1.66548C75.5843 1.66871 75.9102 1.7126 75.6502 1.71498C74.1109 1.72992 72.5107 1.73299 71.0083 1.71492C70.7255 1.71144 70.9033 1.67566 70.8443 1.66795C70.4377 1.61398 69.8426 1.69292 69.7056 1.70081C69.0827 1.73683 68.8406 1.70704 68.2904 1.71536C65.6028 1.75652 62.284 1.75142 59.7469 1.75052C56.4407 1.74954 53.8752 1.72817 50.7225 1.7514C50.5221 1.75283 50.7244 1.7984 50.5517 1.80023C48.3216 1.82176 46.126 1.81376 43.8916 1.83753C43.7082 1.8394 43.9727 1.88226 43.6784 1.88674C43.0748 1.89624 42.31 1.89738 41.6996 1.88613C41.4019 1.88073 41.801 1.84106 41.5013 1.83639C40.8035 1.82544 40.0555 1.82576 39.3388 1.83615C39.0339 1.84066 39.4942 1.88361 39.0978 1.88597C36.3973 1.90294 33.7452 1.92299 31.016 1.87724C30.8288 1.8741 30.6643 1.78324 30.2666 1.80265C30.2367 1.82821 30.2385 1.85812 30.2255 1.88536C26.2944 1.9182 22.4031 1.90445 18.4608 1.91779C18.2946 1.91836 18.5821 1.96558 18.2603 1.96694C16.3978 1.97484 14.5893 1.99666 12.6839 1.95723C12.4949 1.95339 12.5915 1.86753 12.0345 1.88303C11.9362 1.88584 11.0973 1.90111 10.8805 1.92066C10.851 1.92359 11.0043 1.96275 10.734 1.96516C9.16292 1.97849 7.51649 1.97701 5.94804 1.95991C5.6949 1.95708 5.96426 1.91338 5.78396 1.91099C4.50502 1.89437 3.11417 1.93308 1.892 1.9002C1.07393 1.87803 1.37642 1.80325 0.941431 1.73303C0.879907 1.72312 0.373397 1.72385 0.34701 1.68195C0.279276 1.57658 0.524074 1.45972 0.422886 1.34755C0.401505 1.32338 -0.276711 1.35266 0.124637 1.29216C0.152676 1.28811 0.644384 1.26637 0.765422 1.24592C0.849693 1.23178 0.697521 1.18974 0.869509 1.17134C1.04148 1.15296 1.23072 1.18791 1.51588 1.16591C1.80093 1.14365 1.67532 1.09561 2.24475 1.08722ZM158.23 1.04055C157.779 1.0018 157.714 1.15165 158.2 1.11362C158.224 1.1116 158.253 1.04244 158.23 1.04055ZM212.705 0.764724C212.116 0.701489 211.714 0.800341 212.13 0.84936C212.545 0.898325 212.885 0.783889 212.705 0.764724ZM218.809 0.68831C218.121 0.639488 218.013 0.852051 218.75 0.805771C218.793 0.80315 218.849 0.691143 218.809 0.68831ZM2.95702 1.70313C2.95079 1.70117 2.58669 1.70092 2.578 1.70293C2.38435 1.75132 3.1124 1.75179 2.95702 1.70313ZM224.866 0.60784C224.651 0.580148 224.033 0.616125 224.299 0.650561C224.514 0.678263 225.133 0.642285 224.866 0.60784ZM134.742 0.989677C134.735 0.987482 134.474 0.986684 134.479 0.999256C134.497 1.03975 134.86 1.02661 134.742 0.989677ZM235.16 0.557739C233.639 0.556798 232.716 0.385894 234.372 0.397993C234.672 0.40018 233.726 0.456847 234.108 0.470872C234.807 0.49641 235.27 0.384275 235.983 0.439913C236.112 0.450103 235.247 0.558182 235.157 0.557995C235.158 0.55791 235.159 0.557824 235.16 0.557739ZM157.97 0.862123C157.961 0.860187 157.599 0.859985 157.591 0.861985C157.395 0.910368 158.123 0.910803 157.97 0.862123ZM119.51 0.967727C119.49 0.963605 118.652 0.963546 118.624 0.967555C118.187 1.04722 119.883 1.04757 119.51 0.967727ZM182.305 0.640022C182.699 0.590435 183.171 0.582628 183.485 0.64115C183.093 0.63978 182.699 0.641137 182.305 0.640022Z" fill="#FBC550"/>
</svg>
